<svg xmlns="http://www.w3.org/2000/svg" style="display: none;">
  <!-- GitHub Icon -->
  <symbol id="github" viewBox="0 0 24 24">
    <path fill="currentColor" d="M12 0C5.37 0 0 5.37 0 12c0 5.3 3.438 9.8 8.205 11.385.6.11.82-.26.82-.577v-2.165c-3.338.726-4.033-1.61-4.033-1.61-.546-1.387-1.333-1.757-1.333-1.757-1.09-.745.083-.73.083-.73 1.205.085 1.84 1.237 1.84 1.237 1.07 1.835 2.807 1.305 3.492.998.108-.775.42-1.305.763-1.605-2.665-.305-5.466-1.335-5.466-5.93 0-1.31.467-2.38 1.235-3.22-.123-.305-.535-1.53.117-3.18 0 0 1.008-.322 3.3 1.23.957-.267 1.98-.4 3-.405 1.02.005 2.043.138 3 .405 2.29-1.552 3.297-1.23 3.297-1.23.653 1.65.24 2.875.117 3.18.77.84 1.233 1.91 1.233 3.22 0 4.61-2.803 5.62-5.475 5.92.43.37.823 1.1.823 2.22v3.293c0 .32.217.694.825.577C20.565 21.8 24 17.3 24 12c0-6.63-5.37-12-12-12z"/>
  </symbol>

  <!-- Twitter Icon -->
  <symbol id="twitter" viewBox="0 0 24 24">
    <path fill="currentColor" d="M23.954 4.569c-.885.389-1.83.654-2.825.775 1.014-.611 1.794-1.574 2.163-2.723-.949.555-2.005.959-3.127 1.184-.897-.959-2.178-1.555-3.594-1.555-2.717 0-4.92 2.203-4.92 4.917 0 .39.045.765.127 1.124-4.087-.205-7.713-2.165-10.141-5.144-.422.722-.666 1.561-.666 2.475 0 1.71.87 3.213 2.188 4.096-.807-.026-1.566-.248-2.228-.616v.061c0 2.385 1.693 4.374 3.946 4.827-.413.111-.849.171-1.296.171-.314 0-.615-.03-.916-.086.631 1.953 2.445 3.377 4.604 3.417-1.68 1.319-3.809 2.105-6.102 2.105-.39 0-.779-.023-1.17-.067 2.189 1.394 4.768 2.209 7.557 2.209 9.054 0 14-7.496 14-13.986 0-.21 0-.423-.015-.634.961-.695 1.8-1.562 2.46-2.548l-.047-.02z"/>
  </symbol>

  <!-- LinkedIn Icon -->
  <symbol id="linkedin" viewBox="0 0 24 24">
    <path fill="currentColor" d="M22.23 0H1.77C.79 0 0 .77 0 1.72v20.56C0 23.23.79 24 1.77 24h20.46c.98 0 1.77-.77 1.77-1.72V1.72C24 .77 23.21 0 22.23 0zM7.12 20.45H3.56V9h3.56v11.45zM5.34 7.58c-1.14 0-2.06-.92-2.06-2.06 0-1.14.92-2.06 2.06-2.06 1.14 0 2.06.92 2.06 2.06 0 1.14-.92 2.06-2.06 2.06zM20.45 20.45h-3.56v-5.6c0-1.34-.03-3.06-1.86-3.06-1.86 0-2.15 1.45-2.15 2.95v5.71h-3.56V9h3.42v1.56h.05c.48-.91 1.66-1.86 3.42-1.86 3.66 0 4.34 2.41 4.34 5.54v6.21z"/>
  </symbol>

  <!-- Instagram Icon -->
  <symbol id="instagram" viewBox="0 0 512 512">
    <path fill="currentColor" fill-rule="nonzero" d="M170.663 256.157c-.083-47.121 38.055-85.4 85.167-85.482 47.121-.092 85.407 38.029 85.499 85.159.091 47.13-38.047 85.4-85.176 85.492-47.112.09-85.399-38.039-85.49-85.169zm-46.108.092c.141 72.602 59.106 131.327 131.69 131.185 72.592-.14 131.35-59.089 131.209-131.691-.141-72.577-59.114-131.336-131.715-131.194-72.585.141-131.325 59.114-131.184 131.7zm237.104-137.092c.033 16.954 13.817 30.682 30.772 30.649 16.961-.034 30.689-13.811 30.664-30.765-.033-16.954-13.818-30.69-30.78-30.656-16.962.033-30.689 13.818-30.656 30.772zm-208.696 345.4c-24.958-1.086-38.511-5.234-47.543-8.709-11.961-4.628-20.496-10.177-29.479-19.093-8.966-8.951-14.532-17.461-19.202-29.397-3.508-9.033-7.73-22.569-8.9-47.527-1.269-26.983-1.559-35.078-1.683-103.433-.133-68.338.116-76.434 1.294-103.441 1.069-24.941 5.242-38.512 8.709-47.536 4.628-11.977 10.161-20.496 19.094-29.478 8.949-8.983 17.459-14.532 29.403-19.202 9.025-3.526 22.561-7.715 47.511-8.9 26.998-1.278 35.085-1.551 103.423-1.684 68.353-.133 76.448.108 103.456 1.294 24.94 1.086 38.51 5.217 47.527 8.709 11.968 4.628 20.503 10.145 29.478 19.094 8.974 8.95 14.54 17.443 19.21 29.413 3.524 8.999 7.714 22.552 8.892 47.494 1.285 26.998 1.576 35.094 1.7 103.432.132 68.355-.117 76.451-1.302 103.442-1.087 24.957-5.226 38.52-8.709 47.56-4.629 11.953-10.161 20.488-19.103 29.471-8.941 8.949-17.451 14.531-29.403 19.201-9.009 3.517-22.561 7.714-47.494 8.9-26.998 1.269-35.086 1.56-103.448 1.684-68.338.133-76.424-.124-103.431-1.294zM149.977 1.773c-27.239 1.286-45.843 5.648-62.101 12.019-16.829 6.561-31.095 15.353-45.286 29.603C28.381 57.653 19.655 71.944 13.144 88.79c-6.303 16.299-10.575 34.912-11.778 62.168C.172 178.264-.102 186.973.031 256.489c.133 69.508.439 78.234 1.741 105.548 1.302 27.231 5.649 45.827 12.019 62.092 6.569 16.83 15.353 31.089 29.611 45.289 14.25 14.2 28.55 22.918 45.404 29.438 16.282 6.294 34.902 10.583 62.15 11.777 27.305 1.203 36.022 1.468 105.521 1.336 69.532-.133 78.25-.44 105.555-1.734 27.239-1.302 45.826-5.664 62.1-12.019 16.829-6.585 31.095-15.353 45.288-29.611 14.191-14.251 22.917-28.55 29.428-45.404 6.304-16.282 10.592-34.904 11.777-62.134 1.195-27.323 1.478-36.049 1.344-105.557-.133-69.516-.447-78.225-1.741-105.522-1.294-27.256-5.657-45.844-12.019-62.118-6.577-16.829-15.352-31.08-29.602-45.288-14.25-14.192-28.55-22.935-45.404-29.429-16.29-6.304-34.903-10.6-62.15-11.778C333.747.164 325.03-.101 255.506.031c-69.507.133-78.224.431-105.529 1.742z"/>
  </symbol>

  <!-- globe -->
    <symbol id="globe" viewBox="0 0 16 16">
      <path fill-rule="evenodd" clip-rule="evenodd" d="M10.268 14.0934C11.9051 13.4838 13.2303 12.2333 13.9384 10.6469C13.1192 10.7941 12.2138 10.9111 11.2469 10.9925C11.0336 12.2005 10.695 13.2621 10.268 14.0934ZM8 16C12.4183 16 16 12.4183 16 8C16 3.58172 12.4183 0 8 0C3.58172 0 0 3.58172 0 8C0 12.4183 3.58172 16 8 16ZM8.48347 14.4823C8.32384 14.494 8.16262 14.5 8 14.5C7.83738 14.5 7.67616 14.494 7.51654 14.4823C7.5132 14.4791 7.50984 14.4759 7.50647 14.4726C7.2415 14.2165 6.94578 13.7854 6.67032 13.1558C6.41594 12.5744 6.19979 11.8714 6.04101 11.0778C6.67605 11.1088 7.33104 11.125 8 11.125C8.66896 11.125 9.32395 11.1088 9.95899 11.0778C9.80021 11.8714 9.58406 12.5744 9.32968 13.1558C9.05422 13.7854 8.7585 14.2165 8.49353 14.4726C8.49016 14.4759 8.4868 14.4791 8.48347 14.4823ZM11.4187 9.72246C12.5137 9.62096 13.5116 9.47245 14.3724 9.28806C14.4561 8.87172 14.5 8.44099 14.5 8C14.5 7.55901 14.4561 7.12828 14.3724 6.71194C13.5116 6.52755 12.5137 6.37904 11.4187 6.27753C11.4719 6.83232 11.5 7.40867 11.5 8C11.5 8.59133 11.4719 9.16768 11.4187 9.72246ZM10.1525 6.18401C10.2157 6.75982 10.25 7.36805 10.25 8C10.25 8.63195 10.2157 9.24018 10.1525 9.81598C9.46123 9.85455 8.7409 9.875 8 9.875C7.25909 9.875 6.53877 9.85455 5.84749 9.81598C5.7843 9.24018 5.75 8.63195 5.75 8C5.75 7.36805 5.7843 6.75982 5.84749 6.18401C6.53877 6.14545 7.25909 6.125 8 6.125C8.74091 6.125 9.46123 6.14545 10.1525 6.18401ZM11.2469 5.00748C12.2138 5.08891 13.1191 5.20593 13.9384 5.35306C13.2303 3.7667 11.9051 2.51622 10.268 1.90662C10.695 2.73788 11.0336 3.79953 11.2469 5.00748ZM8.48347 1.51771C8.4868 1.52089 8.49016 1.52411 8.49353 1.52737C8.7585 1.78353 9.05422 2.21456 9.32968 2.84417C9.58406 3.42562 9.80021 4.12856 9.95899 4.92219C9.32395 4.89118 8.66896 4.875 8 4.875C7.33104 4.875 6.67605 4.89118 6.04101 4.92219C6.19978 4.12856 6.41594 3.42562 6.67032 2.84417C6.94578 2.21456 7.2415 1.78353 7.50647 1.52737C7.50984 1.52411 7.51319 1.52089 7.51653 1.51771C7.67615 1.50597 7.83738 1.5 8 1.5C8.16262 1.5 8.32384 1.50597 8.48347 1.51771ZM5.73202 1.90663C4.0949 2.51622 2.76975 3.7667 2.06159 5.35306C2.88085 5.20593 3.78617 5.08891 4.75309 5.00748C4.96639 3.79953 5.30497 2.73788 5.73202 1.90663ZM4.58133 6.27753C3.48633 6.37904 2.48837 6.52755 1.62761 6.71194C1.54392 7.12828 1.5 7.55901 1.5 8C1.5 8.44099 1.54392 8.87172 1.62761 9.28806C2.48837 9.47245 3.48633 9.62096 4.58133 9.72246C4.52807 9.16768 4.5 8.59133 4.5 8C4.5 7.40867 4.52807 6.83232 4.58133 6.27753ZM4.75309 10.9925C3.78617 10.9111 2.88085 10.7941 2.06159 10.6469C2.76975 12.2333 4.0949 13.4838 5.73202 14.0934C5.30497 13.2621 4.96639 12.2005 4.75309 10.9925Z"/>
    </symbol>

  <!-- Linktree Icon -->
  <symbol id="linktree" viewBox="0 0 417 512.238">
    <path fill="currentColor" fill-rule="nonzero" d="M171.274 344.942h74.09v167.296h-74.09V344.942zM0 173.468h126.068l-89.622-85.44 49.591-50.985 85.439 87.829V0h74.086v124.872L331 37.243l49.552 50.785-89.58 85.24H417v70.502H290.252l90.183 87.629L331 381.192 208.519 258.11 86.037 381.192l-49.591-49.591 90.218-87.631H0v-70.502z"/>
  </symbol>
  
  <!-- Email Icon -->
<symbol id="email" viewBox="0 0 24 24">
  <path fill="currentColor" d="M12 12.713l11.985-7.99A1 1 0 0 0 23 4H1a1 1 0 0 0-.985.723L12 12.713zM12 14.287L.015 6.297A1 1 0 0 0 0 7v10a1 1 0 0 0 1 1h22a1 1 0 0 0 1-1V7a1 1 0 0 0-.015-.703L12 14.287z"/>
</symbol>

</svg>